<svg version="1.1"
    xmlns="http://www.w3.org/2000/svg"
    xmlns:xlink="http://www.w3.org/1999/xlink" width="625" height="625">
    <defs>
        <clipPath id="aVbHRRpaCFgI">
            <path fill="none" stroke="none" d=" M 0 0 L 625 0 L 625 625 L 0 625 L 0 0 Z"/>
        </clipPath>
    </defs>
    <g transform="scale(1,1)" clip-path="url(#aVbHRRpaCFgI)">
        <g>
            <rect fill="rgb(255,255,255,0)" stroke="none" x="0" y="0" width="625" height="625" fill-opacity="1"/>
            <path fill="none" stroke="rgb(0,255,255)" stroke-dasharray="12 4" paint-order="fill stroke markers" d=" M 618.6838036176404 320.7926983896109 C 618.6838036176404 257.092787366848 492.86313738169144 205.45380655477564 337.6554799489759 205.45380655477564 C 182.44782251626032 205.45380655477564 56.6271562803114 257.092787366848 56.6271562803114 320.7926983896109 C 56.6271562803114 384.49260941237384 182.44782251626032 436.1315902244462 337.6554799489759 436.1315902244462 C 492.86313738169144 436.1315902244462 618.6838036176404 384.49260941237384 618.6838036176404 320.7926983896109 Z" stroke-opacity="0.3" stroke-linecap="round" stroke-linejoin="round" stroke-miterlimit="10" stroke-width="1.5"/>
            <path fill="none" stroke="rgb(0,255,255)" stroke-dasharray="12 4" paint-order="fill stroke markers" d=" M 478.20998356654525 77.27467494025836 C 422.83412892453174 45.40781907700074 315.15547349434667 128.68235145025488 237.7029751733989 263.2735488713605 C 160.25047685245107 397.86474629246607 142.3538210953643 532.8056603621026 197.72967573737785 564.6725162253603 C 253.10553037939138 596.5393720886179 360.78418580957646 513.2648397153638 438.2366841305242 378.6736422942581 C 515.6891824514721 244.08244487315255 533.5858382085588 109.14153080351599 478.20998356654525 77.27467494025836 Z" stroke-opacity="0.3" stroke-linecap="round" stroke-linejoin="round" stroke-miterlimit="10" stroke-width="1.5"/>
            <path fill="none" stroke="rgb(0,255,255)" stroke-dasharray="12 4" paint-order="fill stroke markers" d=" M 478.17557006720256 564.1741668845831 C 533.3444418284389 532.3127989324742 515.1416889759068 397.5259538601111 437.518583632962 263.11932226755806 C 359.89547829001714 128.71269067500498 252.2463113197594 45.58332963703549 197.07743955852303 77.44469758914443 C 141.90856779728662 109.30606554125339 160.11132064981865 244.09291061361643 237.73442599276353 378.49954220616945 C 315.3575313357084 512.9061737987225 423.0066983059661 596.035534836692 478.17557006720256 564.1741668845831 Z" stroke-opacity="0.3" stroke-linecap="round" stroke-linejoin="round" stroke-miterlimit="10" stroke-width="1.5"/>
            <path fill="rgb(0,255,255)" stroke="none" paint-order="fill stroke markers" d=" M 376.095847032583 320.7926983896109 C 376.095847032583 342.0227269077848 358.8855084671497 359.2330654732181 337.6554799489759 359.2330654732181 C 316.425451430802 359.2330654732181 299.2151128653687 342.0227269077848 299.2151128653687 320.7926983896109 C 299.2151128653687 299.56266987143704 316.425451430802 282.3523313060037 337.6554799489759 282.3523313060037 C 358.8855084671497 282.3523313060037 376.095847032583 299.56266987143704 376.095847032583 320.7926983896109 Z" stroke-opacity="0.5" stroke-linecap="round" stroke-linejoin="round" stroke-miterlimit="10" stroke-width="1.5" fill-opacity="0.1"/>
        </g>
    </g>
</svg>